<svg height="511pt" viewBox="0 -19 511.9998 511" width="511pt" xmlns="http://www.w3.org/2000/svg"><path d="m277.5 24.472656v89.917969c-6.898438-1.769531-13.898438-2.664063-21-2.664063-7.789062 0-15.460938 1.078126-23 3.191407v-90.445313zm0 0" fill="#dceeef"/><path d="m255.5 24.472656h-22v90.445313c7.21875-2.023438 14.554688-3.085938 22-3.175781zm0 0" fill="#ccdbdb"/><path d="m481.5 178.980469v17.039062c0 3.851563-3.128906 6.980469-6.980469 6.980469h-53.058593c-4.640626-10.898438-10.28125-21.269531-16.789063-31h69.847656c3.851563 0 6.980469 3.128906 6.980469 6.980469zm0 0" fill="#fe6150"/><path d="m83.859375 172h49.957031v27.980469h-49.957031zm0 0" fill="#8effa4"/><path d="m299.5 91.691406c-13.507812-3.066406-27.5625-4.691406-42-4.691406-104.382812 0-189 84.617188-189 189s84.617188 189 189 189c14.4375 0 28.492188-1.625 42-4.691406zm0 0" fill="#64d3ff"/><path d="m247.5 341.5h52v-28h-222.5c-1.625 0-3.230469-.082031-4.816406-.234375 1.9375 9.703125 4.617187 19.132813 7.980468 28.234375zm0 0" fill="#34bfea"/><path d="m126.5 227c0-44.175781 15.160156-84.808594 40.554688-116.988281-58.71875 32.0625-98.554688 94.371093-98.554688 165.988281 0 104.382812 84.617188 189 189 189 14.4375 0 28.492188-1.625 42-4.691406v-44.988282c-96.890625-8.125-173-89.328124-173-188.320312zm0 0" fill="#34bfea"/><path d="m218.5 392h-20c9.390625 0 17-7.609375 17-17 0-4.699219-1.898438-8.941406-4.980469-12.019531-3.078125-3.082031-7.320312-4.980469-12.019531-4.980469h-111.332031c12.921875 26.792969 31.988281 50.058594 55.355469 68h75.976562c9.390625 0 17-7.609375 17-17 0-4.699219-1.898438-8.941406-4.980469-12.019531-3.078125-3.082031-7.320312-4.980469-12.019531-4.980469zm0 0" fill="#8effa4"/><path d="m212.078125 385.199219c-11.9375-7.824219-22.941406-16.953125-32.796875-27.199219h-92.113281c12.921875 26.792969 31.988281 50.058594 55.355469 68h75.976562c9.390625 0 17-7.609375 17-17 0-4.699219-1.898438-8.941406-4.980469-12.019531-3.078125-3.082031-7.320312-4.980469-12.019531-4.980469h-20c5.558594 0 10.476562-2.679688 13.578125-6.800781zm0 0" fill="#5ded75"/><path d="m73.90625 231h120.59375c9.390625 0 17-7.609375 17-17 0-4.699219-1.898438-8.941406-4.980469-12.019531-3.078125-3.082031-7.320312-4.980469-12.019531-4.980469h-25c9.390625 0 17-7.609375 17-17 0-4.699219-1.898438-8.941406-4.980469-12.019531-3.078125-3.082031-7.320312-4.980469-12.019531-4.980469h25c9.390625 0 17-7.609375 17-17 0-4.699219-1.898438-8.941406-4.980469-12.019531-3.078125-3.082031-7.320312-4.980469-12.019531-4.980469h-55.78125c-31.644531 25.597656-54.847656 61.199219-64.8125 102zm0 0" fill="#8effa4"/><path d="m138.703125 129c-31.636719 25.597656-54.84375 61.203125-64.808594 102h52.652344c-.027344-1.332031-.046875-2.664062-.046875-4 0-35.882812 10-69.425781 27.363281-98zm0 0" fill="#5ded75"/><path d="m446.5 276c0-104.382812-84.617188-189-189-189v378c104.382812 0 189-84.617188 189-189zm0 0" fill="#3fb9f3"/><path d="m416.5 277c0 8.160156-.609375 16.167969-1.789062 24l-6.859376 28c-21.582031 62.839844-81.191406 108-151.351562 108v-320c88.371094 0 160 71.628906 160 160zm0 0" fill="#dceeef"/><path d="m411.648438 313.5h-155.148438v28h146.449219c1.800781-4.082031 3.441406-8.25 4.902343-12.5zm0 0" fill="#d4d4d6"/><path d="m256.5 323.539062v68.753907c0 .824219 1.140625 1.035156 1.429688.265625 3.96875-10.589844 15.390624-41.082032 23.820312-63.558594v-3.773438zm0 0" fill="#1553c3"/><path d="m469 275 35.5 42-35.5 40v-28h-383c-21.679688 0-41.300781-8.789062-55.511719-22.988281-14.199219-14.210938-22.988281-33.832031-22.988281-55.511719 0-43.351562 35.148438-78.5 78.5-78.5h13.328125c-5.90625 8.828125-11.097656 18.179688-15.46875 27.980469l-4.589844.46875c-24.667969 3.289062-43.769531 24.480469-43.769531 50.050781 0 21.761719 13.828125 40.351562 33.160156 47.429688 5.410156 1.988281 11.25 3.070312 17.339844 3.070312h383zm0 0" fill="#fe6150"/><path d="m369.109375 271.308594-80.800781-27.367188-7.402344 5.042969 7.402344 50.742187 3.882812 1.273438h10.777344l66.132812-22.320312c3.527344-1.191407 3.527344-6.179688.007813-7.371094zm0 0" fill="#de332a"/><path d="m256.5 160.996094v92.144531l31.808594 17.609375v-26.808594c-6.914063-18.949218-24.996094-68.601562-30.316406-83.210937-.292969-.8125-1.492188-.597657-1.492188.265625zm0 0" fill="#1553c3"/><path d="m280.449219 241.28125c4.070312 2.738281 7.652343 6.148438 10.582031 10.078125v.011719c5.320312 7.160156 8.46875 16.019531 8.46875 25.628906 0 8.890625-2.699219 17.148438-7.308594 24h-35.691406v-67c8.871094 0 17.109375 2.679688 23.949219 7.28125zm0 0" fill="#fec12c"/><path d="m302.5 18.699219v20.601562c0 5.910157-4.789062 10.699219-10.699219 10.699219h-72.601562c-5.910157 0-10.699219-4.789062-10.699219-10.699219v-20.601562c0-5.910157 4.789062-10.699219 10.699219-10.699219h72.601562c5.910157 0 10.699219 4.789062 10.699219 10.699219zm0 0" fill="#8cc0c5"/><path d="m300.847656 37h-44c-13.804687 0-25-11.191406-25-25v-4h-12.648437c-5.910157 0-10.699219 4.789062-10.699219 10.699219v20.601562c0 5.90625 4.789062 10.699219 10.699219 10.699219h72.601562c5.910157 0 10.699219-4.792969 10.699219-10.699219v-2.300781zm0 0" fill="#6f9d9e"/><path d="m510.226562 312.160156-35.5-42c-2.03125-2.40625-5.34375-3.285156-8.304687-2.203125-2.957031 1.082031-4.921875 3.894531-4.921875 7.042969v18.5h-9.207031c.453125-5.484375.707031-11.003906.707031-16.5 0-23.332031-4.097656-45.722656-11.59375-66.5h33.113281c7.984375 0 14.480469-6.496094 14.480469-14.480469v-17.039062c0-7.984375-6.496094-14.480469-14.480469-14.480469h-57.003906c-30.394531-43.367188-77.832031-73.945312-132.515625-81.925781v-25.074219h6.804688c10.03125 0 18.195312-8.164062 18.195312-18.195312v-20.609376c0-10.03125-8.164062-18.195312-18.195312-18.195312h-72.609376c-10.03125 0-18.195312 8.164062-18.195312 18.195312v20.609376c0 10.03125 8.164062 18.195312 18.195312 18.195312h6.804688v25.371094c-53.878906 8.429687-100.5625 38.835937-130.582031 81.726562-.378907-.058594-.761719-.097656-1.15625-.097656h-8.261719c-47.421875 0-86 38.578125-86 86 0 41.472656 29.511719 76.183594 68.636719 84.238281 11.882812 38.625 35.949219 73.324219 68.167969 98.105469 34.574218 26.597656 75.964843 40.65625 119.695312 40.65625 43.570312 0 84.839844-13.964844 119.347656-40.382812 31.890625-24.417969 55.859375-58.5625 67.964844-96.617188h17.6875v20.5c0 3.113281 1.925781 5.90625 4.835938 7.011719.867187.328125 1.769531.488281 2.660156.488281 2.105468 0 4.160156-.886719 5.613281-2.523438l35.5-40c2.476563-2.789062 2.527344-6.96875.117187-9.816406zm-36.226562-132.660156v16h-38.714844c-2.503906-5.472656-5.25-10.8125-8.226562-16zm-36 97.5c0 5.496094-.261719 11.019531-.753906 16.5h-14.058594c.535156-5.480469.8125-11.003906.8125-16.5 0-.535156-.015625-1.066406-.019531-1.597656.007812-.132813.019531-.265625.019531-.402344 0-.226562-.015625-.449219-.035156-.671875-1.394532-88.628906-71.957032-160.753906-159.964844-164.652344v-14.007812c96.613281 3.945312 174 83.765625 174 181.332031zm-89.355469 16.5 22.855469-7.714844c4.632812-1.5625 7.746094-5.898437 7.746094-10.785156.003906-4.890625-3.101563-9.226562-7.734375-10.792969l-77.390625-26.21875c-6.894532-18.914062-21.292969-58.429687-30.121094-82.679687v-30.625c77.464844 3.769531 139.925781 65.613281 144.695312 142.816406h-11.195312c-4.144531 0-7.5 3.359375-7.5 7.5s3.355469 7.5 7.5 7.5h11.398438c-.132813 3.675781-.402344 7.347656-.796876 11zm-84.644531 0v-51.195312c15.984375 3.453124 28 17.695312 28 34.695312 0 5.808594-1.417969 11.433594-4.085938 16.5zm0-66.441406v-27.917969c3.851562 10.574219 7.871094 21.613281 11.296875 31-3.585937-1.441406-7.363281-2.492187-11.296875-3.082031zm38.746094 29.6875 53.839844 18.242187-52.035157 17.5625c1.609375-4.984375 2.449219-10.214843 2.449219-15.550781 0-7.199219-1.523438-14.046875-4.253906-20.253906zm-86.746094-217.441406v-20.609376c0-1.761718 1.433594-3.195312 3.195312-3.195312h72.609376c1.761718 0 3.195312 1.433594 3.195312 3.195312v20.609376c0 1.761718-1.433594 3.195312-3.195312 3.195312h-72.609376c-1.761718 0-3.195312-1.433594-3.195312-3.195312zm25 18.195312h29v23.472656c-4.460938-.304687-8.960938-.472656-13.5-.472656-5.214844 0-10.386719.207031-15.5.609375zm-99.265625 79h52.765625c5.238281 0 9.5 4.261719 9.5 9.5s-4.261719 9.5-9.5 9.5h-37c-4.144531 0-7.5 3.359375-7.5 7.5s3.355469 7.5 7.5 7.5h12c5.238281 0 9.5 4.261719 9.5 9.5s-4.261719 9.5-9.5 9.5h-27c-4.144531 0-7.5 3.359375-7.5 7.5s3.355469 7.5 7.5 7.5h52c5.238281 0 9.5 4.261719 9.5 9.5s-4.261719 9.5-9.5 9.5h-111.449219c10.664063-34.507812 31.371094-64.648438 58.683594-87zm129.195313 200-6.929688 18.484375v-18.484375zm-21.929688 79.5v42.351562c-30.121094-1.207031-58.878906-9.691406-84.519531-24.851562h54.019531c13.511719 0 24.5-10.992188 24.5-24.5 0-12.65625-9.644531-23.101562-21.972656-24.371094 1.269531-2.957031 1.972656-6.210937 1.972656-9.628906 0-13.507812-10.988281-24.5-24.5-24.5h-107.960938c-2.046874-4.59375-3.902343-9.273438-5.558593-14.027344.339843.003906.679687.027344 1.019531.027344h163zm-150.929688-50.5h100.429688c5.238281 0 9.5 4.261719 9.5 9.5s-4.261719 9.5-9.5 9.5h-25c-4.144531 0-7.5 3.359375-7.5 7.5s3.355469 7.5 7.5 7.5h45c5.238281 0 9.5 4.261719 9.5 9.5s-4.261719 9.5-9.5 9.5h-75.664062c-18.1875-14.644531-33.40625-32.753906-44.765626-53zm268.65625 55.703125c-29.878906 22.878906-65.253906 35.644531-102.726562 37.148437v-14.03125c22.699219-.984374 44.542969-6.449218 65.027344-16.304687 3.730468-1.796875 5.300781-6.277344 3.507812-10.011719-1.796875-3.730468-6.277344-5.300781-10.011718-3.503906-18.441407 8.871094-38.09375 13.847656-58.523438 14.820312v-31.59375l22.945312-61.226562h109.996094c-10.566406 24.96875-27.535156 46.589844-49.554687 62.957031-3.324219 2.472657-4.015625 7.171875-1.542969 10.496094 1.472656 1.980469 3.730469 3.023437 6.023438 3.023437 1.554687 0 3.125-.480468 4.46875-1.480468 25.878906-19.242188 45.410156-45.09375 56.761718-74.996094h14.910156c-11.597656 33.320312-33.089843 63.121094-61.28125 84.703125zm109.773438-83.953125v-8.25c0-4.140625-3.355469-7.5-7.5-7.5h-383c-39.148438 0-71-31.851562-71-71 0-39.128906 31.820312-70.964844 70.941406-71-2.511718 4.378906-4.851562 8.863281-7.03125 13.445312l-.394531.039063c-.078125.007813-.15625.015625-.234375.027344-28.667969 3.832031-50.28125 28.546875-50.28125 57.488281 0 24.890625 15.761719 46.164062 37.828125 54.375.003906.003906.007813.003906.011719.007812 6.28125 2.335938 13.074218 3.617188 20.160156 3.617188h89c4.144531 0 7.5-3.359375 7.5-7.5s-3.355469-7.5-7.5-7.5h-89c-3.570312 0-7.035156-.445312-10.355469-1.269531-.425781-5.097657-.644531-10.203125-.644531-15.230469 0-13.207031 1.429688-26.085938 4.121094-38.5h115.378906c13.511719 0 24.5-10.992188 24.5-24.5s-10.988281-24.5-24.5-24.5h-2.417969c1.234375-2.921875 1.917969-6.132812 1.917969-9.5s-.683594-6.578125-1.917969-9.5h2.417969c13.511719 0 24.5-10.992188 24.5-24.5s-10.988281-24.5-24.5-24.5h-31.511719c25.316407-15.28125 54.652344-24.550781 86.011719-25.832031v197.832031h-44c-4.144531 0-7.5 3.359375-7.5 7.5s3.355469 7.5 7.5 7.5h86.5625c.195312.015625.390625.042969.585938.042969.238281 0 .472656-.019531.710937-.042969h10.089844.023437.023438 111.707031.015625.019531 29.246094.015625.019531 24.980469c4.144531 0 7.5-3.359375 7.5-7.5v-5.507812l18.078125 21.390624zm-404.703125-127.332031c-7.628906 20.941406-11.796875 43.535156-11.796875 67.082031 0 2.605469.070312 5.230469.179688 7.859375-10.425782-7.855469-17.179688-20.332031-17.179688-34.359375 0-18.492188 11.90625-34.652344 28.796875-40.582031zm0 0"/></svg>