<?xml version="1.0"?>
<svg xmlns="http://www.w3.org/2000/svg" viewBox="0 0 64 64" width="512" height="512"><g id="Tracking"><path d="M45,37a1,1,0,0,1-1-1V27a1,1,0,0,1,1-1h7l-3.41-3.41A2.006,2.006,0,0,0,47.17,22H11V46a2.006,2.006,0,0,0,2,2H59a2.006,2.006,0,0,0,2-2V37Z" style="fill:#3d9ae2"/><path d="M27,22A12,12,0,0,1,15,34a11.8,11.8,0,0,1-4-.69A12,12,0,1,1,27,22Z" style="fill:#ffd422"/><path d="M21,20c0,4-6,10-6,10S9,24,9,20a6,6,0,0,1,12,0Z" style="fill:#ff6243"/><circle cx="15" cy="20" r="2" style="fill:#ffa733"/><path d="M61,35v2H45a1,1,0,0,1-1-1V27a1,1,0,0,1,1-1h7Z" style="fill:#e6e7e8"/><path d="M11,39H61a0,0,0,0,1,0,0v7a2,2,0,0,1-2,2H13a2,2,0,0,1-2-2V39A0,0,0,0,1,11,39Z" style="fill:#78b9eb"/><circle cx="22" cy="48" r="6" style="fill:#787680"/><circle cx="50" cy="48" r="6" style="fill:#787680"/><rect x="21" y="47" width="2" height="2" style="fill:#57565c"/><rect x="49" y="47" width="2" height="2" style="fill:#57565c"/><rect x="2" y="53" width="59" height="2" style="fill:#57565c"/><rect x="2" y="44" width="5" height="2" style="fill:#c6c5ca"/><rect x="4" y="40" width="3" height="2" style="fill:#c6c5ca"/><rect x="5" y="36" width="2" height="2" style="fill:#c6c5ca"/><rect x="35" y="22" width="2" height="16" style="fill:#1e81ce"/><rect x="40" y="40" width="4" height="2" style="fill:#1e81ce"/></g></svg>
